<?xml version="1.0" encoding="UTF-8" standalone="no"?>

<svg
   width="508.83392"
   height="104.14781"
   viewBox="0 0 508.83392 104.14781"
   version="1.1"
   id="svg1"
   xmlns="http://www.w3.org/2000/svg"
   xmlns:svg="http://www.w3.org/2000/svg">
  <defs
     id="defs1" />
  <g
     id="layer1"
     transform="translate(-1.7834417,-215.79785)">
    <path
       id="rect2"
       style="fill:#10b981;fill-opacity:1;stroke:none;stroke-width:7.57522;stroke-dasharray:none"
       d="m 56.08869,215.79785 c -29.992001,2.7e-4 -54.305189,23.31446 -54.3052483,52.07391 v 52.0739 H 61.263984 c 27.133589,-2.7e-4 49.129646,-21.09236 49.129956,-47.11087 v -57.03694 z" />
    <path
       d="M 47.388165,224.34551 H 56.637 c 16.424242,0 29.800925,13.37919 29.800925,29.80345 v 27.51652 c 0,16.42424 -13.376683,29.69478 -29.800925,29.69478 H 25.418423 v -65.04501 c -1.33e-4,-12.13361 9.836134,-21.96987 21.969742,-21.96974 z m -0.975416,21.10046 v 44.92249 H 56.637 c 4.785864,0 8.700458,-3.91711 8.700458,-8.70298 v -27.51652 c 0,-4.78587 -3.914594,-8.70299 -8.700458,-8.70299 z"
       style="fill:#ffffff;fill-opacity:1;stroke:none;stroke-width:7.57522;stroke-dasharray:none"
       id="path1" />
    <path
       style="font-size:108.77px;font-family:Typesauce;-inkscape-font-specification:Typesauce;letter-spacing:0px;word-spacing:0px;fill:#10b981;stroke-width:9.06453"
       d="m 147.32545,224.34551 h 31.21699 v 87.016 H 163.0971 q -2.28417,0 -3.91572,-1.63155 -1.63155,-1.63155 -1.63155,-4.02449 v -20.88384 h -19.03475 v 20.88384 q 0,2.39294 -1.63155,4.02449 -1.63155,1.63155 -3.91572,1.63155 h -15.44534 v -57.21302 q 0,-12.39978 8.7016,-21.10138 8.7016,-8.7016 21.10138,-8.7016 z m 0,21.10138 q -3.69818,0 -6.19989,2.50171 -2.50171,2.50171 -2.50171,6.19989 v 9.68053 h 18.92598 v -18.38213 z m 87.45108,32.19592 14.35764,33.7187 h -19.25229 q -1.74032,0 -3.15433,-0.87016 -1.41401,-0.97893 -2.06663,-2.61048 l -9.57176,-22.51539 q -0.21754,0 -0.65262,0 h -9.46299 v 20.33999 q 0,2.39294 -1.63155,4.02449 -1.63155,1.63155 -3.91572,1.63155 h -15.44534 v -87.016 h 30.4556 q 12.72609,0 21.64523,8.91914 8.91914,8.91914 8.91914,21.64523 0,6.63497 -2.71925,12.61732 -2.71925,5.87358 -7.50513,10.11561 z m -29.69421,-32.19592 v 18.92598 h 9.46299 q 3.91572,0 6.63497,-2.71925 2.82802,-2.82802 2.82802,-6.74374 0,-3.91572 -2.82802,-6.63497 -2.71925,-2.82802 -6.63497,-2.82802 z m 55.14641,65.91462 q -2.39294,0 -4.02449,-1.63155 -1.63155,-1.63155 -1.63155,-4.02449 v -81.35996 h 15.44533 q 2.28417,0 3.91572,1.63155 1.63155,1.63155 1.63155,4.02449 v 81.35996 z m 75.81268,-87.016 h 15.44534 v 87.016 q -0.32631,0 -0.97893,0 -0.54385,0 -2.28417,-0.10877 -1.74032,-0.10877 -3.58941,-0.32631 -1.84909,-0.32631 -4.56834,-1.0877 -2.71925,-0.76139 -5.32973,-1.84909 -2.50171,-1.19647 -5.65604,-3.15433 -3.04556,-1.95786 -5.87358,-4.3508 -2.71925,-2.50171 -5.54727,-6.09112 -2.82802,-3.69818 -5.22096,-8.04898 -2.71925,-4.89465 -4.78588,-10.33315 -2.06663,-5.4385 -3.15433,-9.68053 -0.97893,-4.24203 -1.63155,-7.72267 -0.54385,-3.58941 -0.76139,-5.4385 l -0.10877,-1.95786 v 54.49377 q 0,2.28417 -1.63155,4.02449 -1.63155,1.63155 -3.91572,1.63155 h -15.44534 v -87.016 q 0.32631,0 0.87016,0 0.54385,0 2.28417,0.10877 1.74032,0.10877 3.58941,0.43508 1.84909,0.32631 4.45957,1.0877 2.71925,0.76139 5.22096,1.95786 2.50171,1.0877 5.4385,3.04556 3.04556,1.84909 5.76481,4.3508 2.71925,2.39294 5.4385,5.98235 2.82802,3.48064 5.11219,7.72267 4.56834,8.48406 7.39636,17.4032 2.82802,8.81037 3.37187,13.48748 l 0.43508,4.56834 v -54.49377 q 0,-2.39294 1.63155,-4.02449 1.63155,-1.63155 4.02449,-1.63155 z m 81.79509,40.02736 v 46.98864 h -31.21698 q -12.39978,0 -21.10138,-8.7016 -8.7016,-8.7016 -8.7016,-20.99261 v -27.51881 q 0,-12.39978 8.7016,-21.10138 8.7016,-8.7016 21.10138,-8.7016 h 31.21698 v 15.44534 q 0,2.28417 -1.63155,4.02449 -1.63155,1.63155 -3.91572,1.63155 h -25.77848 q -3.58941,0 -6.19989,2.50171 -2.50171,2.50171 -2.50171,6.19989 v 27.51881 q 0,3.58941 2.50171,6.19989 2.61048,2.50171 6.19989,2.50171 h 10.33314 v -20.77507 q 0,-2.1754 1.52278,-3.69818 1.52278,-1.52278 3.69818,-1.52278 z m 53.94992,16.75058 q -6.85251,4.13326 -16.3155,4.13326 -2.93679,0 -5.32973,-0.76139 -2.28417,-0.87016 -3.48064,-2.06663 -1.19647,-1.30524 -1.74032,-2.06663 -0.43508,-0.76139 -0.65262,-1.41401 v 26.75742 q 0,2.28417 -1.63155,3.91572 -1.63155,1.63155 -3.91572,1.63155 H 423.275 v -57.21302 q 0,-12.29101 8.7016,-20.99261 8.7016,-8.7016 20.99261,-8.7016 h 31.32576 v 86.90723 h -15.44534 q -2.28417,0 -4.02449,-1.63155 -1.63155,-1.63155 -1.63155,-3.91572 v -18.81721 q 3.37187,-0.54385 6.74374,-2.06663 3.48064,-1.52278 5.11219,-2.82802 l 1.74032,-1.30524 q -4.89465,-2.06663 -6.96128,-4.56834 -1.41401,-1.74032 -2.28417,-3.2631 -0.76139,-1.52278 -1.30524,-2.93679 -0.43508,-1.52278 -0.65262,-1.84909 -0.43508,-0.97893 -1.0877,-1.74032 -0.54385,-0.87016 -0.87016,-1.30524 l -0.43508,-0.43508 v -19.25229 h -10.22438 q -3.58941,0 -6.19989,2.61048 -2.50171,2.50171 -2.50171,6.09112 v 14.46641 q 0.54385,-0.97893 1.30524,-1.95786 0.87016,-0.97893 3.04556,-2.1754 2.1754,-1.19647 4.89465,-1.19647 7.94021,0 10.98577,9.24545 0.87016,2.39294 2.61048,4.56834 1.84909,2.1754 3.2631,3.15433 z m 23.49438,30.23806 q -2.39294,0 -4.02449,-1.63155 -1.63155,-1.63155 -1.63155,-4.02449 v -81.35996 h 15.44534 q 2.28417,0 3.91572,1.63155 1.63155,1.63155 1.63155,4.02449 v 81.35996 z"
       id="text1"
       aria-label="aringAI" />
  </g>
</svg>
